<svg width="20" height="20" viewBox="0 0 20 20" fill="none" xmlns="http://www.w3.org/2000/svg">
<g clip-path="url(#clip0_6479_4470)">
<rect width="20" height="20" rx="10" fill="#D3B295"/>
<path d="M4.07786 2.25879L4.28916 2.9091H4.97294L4.41975 3.31102L4.63105 3.96133L4.07786 3.55942L3.52467 3.96133L3.73597 3.31102L3.18278 2.9091H3.86656L4.07786 2.25879Z" fill="#ECEBEB"/>
<path d="M7.32884 0.376465L7.54014 1.02678H8.22392L7.67073 1.4287L7.88203 2.07901L7.32884 1.67709L6.77565 2.07901L6.98695 1.4287L6.43376 1.02678H7.11754L7.32884 0.376465Z" fill="#ECEBEB"/>
<path d="M7.49974 3.45605L7.71104 4.10637H8.39482L7.84163 4.50829L8.05293 5.1586L7.49974 4.75668L6.94655 5.1586L7.15785 4.50829L6.60466 4.10637H7.28844L7.49974 3.45605Z" fill="#ECEBEB"/>
<path d="M8.01341 7.0498L8.22471 7.70012H8.90849L8.3553 8.10204L8.5666 8.75235L8.01341 8.35043L7.46022 8.75235L7.67152 8.10204L7.11833 7.70012H7.80211L8.01341 7.0498Z" fill="#ECEBEB"/>
<path d="M10.0661 1.57422L10.2774 2.22453H10.9612L10.408 2.62645L10.6193 3.27676L10.0661 2.87485L9.51295 3.27676L9.72425 2.62645L9.17106 2.22453H9.85484L10.0661 1.57422Z" fill="#ECEBEB"/>
<path d="M12.1199 -0.308105L12.3312 0.342209H13.0149L12.4617 0.744125L12.673 1.39444L12.1199 0.992523L11.5667 1.39444L11.778 0.744125L11.2248 0.342209H11.9086L12.1199 -0.308105Z" fill="#ECEBEB"/>
<path d="M10.7507 4.99658L10.962 5.58778H11.6458L11.0926 5.95316L11.3039 6.54435L10.7507 6.17897L10.1975 6.54435L10.4088 5.95316L9.85563 5.58778H10.5394L10.7507 4.99658Z" fill="#ECEBEB"/>
<path d="M13.489 2.77148L13.7003 3.4218H14.3841L13.8309 3.82372L14.0422 4.47403L13.489 4.07211L12.9358 4.47403L13.1471 3.82372L12.5939 3.4218H13.2777L13.489 2.77148Z" fill="#ECEBEB"/>
<path d="M1.16771 7.39209L1.37901 8.0424H2.06279L1.5096 8.44432L1.7209 9.09463L1.16771 8.69272L0.614516 9.09463L0.825816 8.44432L0.272625 8.0424H0.956406L1.16771 7.39209Z" fill="#ECEBEB"/>
<path d="M4.41966 5.68066L4.63096 6.33098H5.31474L4.76155 6.73289L4.97285 7.38321L4.41966 6.98129L3.86647 7.38321L4.07777 6.73289L3.52458 6.33098H4.20836L4.41966 5.68066Z" fill="#ECEBEB"/>
<path d="M4.41966 9.44531L4.63096 10.0956H5.31474L4.76155 10.4975L4.97285 11.1479L4.41966 10.7459L3.86647 11.1479L4.07777 10.4975L3.52458 10.0956H4.20836L4.41966 9.44531Z" fill="#ECEBEB"/>
<path d="M0.825909 11.8413L1.03721 12.4325H1.72099L1.1678 12.7979L1.3791 13.3891L0.825909 13.0237L0.272719 13.3891L0.484019 12.7979L-0.0691715 12.4325H0.614609L0.825909 11.8413Z" fill="#ECEBEB"/>
<path d="M13.3632 16.53L12.7897 16.1799L12.2795 16.6172L12.4352 15.9635L11.8617 15.6134L12.5315 15.5596L12.6873 14.9059L12.9454 15.5263L13.6152 15.4724L13.105 15.9097L13.3632 16.53Z" fill="#ECEBEB"/>
<path d="M16.1082 14.5608L15.5734 14.154L15.0213 14.537L15.2429 13.9026L14.708 13.4958L15.3798 13.5106L15.6014 12.8762L15.795 13.5197L16.4668 13.5344L15.9146 13.9173L16.1082 14.5608Z" fill="#ECEBEB"/>
<path d="M17.7327 8.76372L17.962 8.13213L17.4321 7.71887L18.1037 7.74177L18.333 7.11017L18.5187 7.75593L19.1903 7.77883L18.6335 8.15503L18.8192 8.80078L18.2894 8.38753L17.7327 8.76372Z" fill="#ECEBEB"/>
<path d="M18.8482 12.045L18.3034 11.6517L17.761 12.0484L17.9667 11.4087L17.4218 11.0154L18.0937 11.0133L18.2994 10.3736L18.509 11.012L19.181 11.0099L18.6386 11.4066L18.8482 12.045Z" fill="#ECEBEB"/>
<path d="M1.51897 5.82475L1.74955 5.19362L1.22056 4.7793L1.89205 4.80355L2.12263 4.17242L2.30706 4.81855L2.97856 4.84281L2.42105 5.21788L2.60548 5.86401L2.07649 5.44968L1.51897 5.82475Z" fill="#ECEBEB"/>
<path d="M17.4335 3.99317L16.8884 3.60024L16.3463 3.99722L16.5516 3.3574L16.0065 2.96447L16.6784 2.96197L16.8837 2.32215L17.0937 2.96042L17.7656 2.95792L17.2235 3.3549L17.4335 3.99317Z" fill="#ECEBEB"/>
<path d="M15.004 2.22841L15.2406 1.59953L14.7157 1.18013L15.3869 1.21085L15.6235 0.581968L15.8017 1.22984L16.473 1.26057L15.9119 1.63025L16.0901 2.27813L15.5651 1.85873L15.004 2.22841Z" fill="#ECEBEB"/>
<path d="M10.1694 18.5051L9.63635 18.096L9.08252 18.4765L9.30694 17.8431L8.77394 17.4339L9.44564 17.4517L9.67006 16.8183L9.86077 17.4626L10.5325 17.4803L9.97864 17.8608L10.1694 18.5051Z" fill="#ECEBEB"/>
<path d="M13.5982 19.7886L13.0674 19.3766L12.5115 19.7541L12.7393 19.122L12.2085 18.71L12.8801 18.7313L13.1079 18.0992L13.2952 18.7445L13.9668 18.7658L13.4109 19.1433L13.5982 19.7886Z" fill="#ECEBEB"/>
<path d="M16.4795 17.9745L15.98 17.5251L15.3982 17.8613L15.6713 17.2473L15.1717 16.7979L15.84 16.8679L16.1131 16.2539L16.253 16.9111L16.9213 16.9811L16.3396 17.3173L16.4795 17.9745Z" fill="#ECEBEB"/>
<path d="M19.1986 14.6027L18.6997 14.1526L18.1175 14.488L18.3914 13.8744L17.8925 13.4243L18.5607 13.4952L18.8346 12.8816L18.9736 13.539L19.6418 13.61L19.0596 13.9453L19.1986 14.6027Z" fill="#ECEBEB"/>
<path d="M10.2477 14.4273L9.69885 14.8149L9.89795 15.4567L9.35966 15.0545L8.81083 15.4422L9.02697 14.806L8.48868 14.4038L9.16055 14.4128L9.3767 13.7765L9.5758 14.4183L10.2477 14.4273Z" fill="#ECEBEB"/>
<path d="M8.20783 11.8754L8.41083 11.2349L7.86437 10.8439L8.53629 10.839L8.73929 10.1985L8.95156 10.836L9.62348 10.8311L9.08275 11.23L9.29501 11.8675L8.74856 11.4765L8.20783 11.8754Z" fill="#ECEBEB"/>
<path d="M7.66464 16.3993L7.13454 16.8122L7.36343 17.444L6.80692 17.0674L6.27682 17.4803L6.46298 16.8347L5.90648 16.4581L6.57804 16.4357L6.7642 15.79L6.99308 16.4218L7.66464 16.3993Z" fill="#ECEBEB"/>
<path d="M5.33252 19.3371L4.7769 18.9592L4.24583 19.3709L4.43351 18.7257L3.87789 18.3478L4.5495 18.3269L4.73719 17.6818L4.96458 18.314L5.63619 18.2932L5.10512 18.7048L5.33252 19.3371Z" fill="#ECEBEB"/>
<path d="M6.54883 14.1475L6.04102 13.7075L5.46561 14.0545L5.72717 13.4355L5.21936 12.9955L5.88883 13.053L6.15039 12.4341L6.30258 13.0885L6.97205 13.146L6.39664 13.493L6.54883 14.1475Z" fill="#ECEBEB"/>
<path d="M3.91775 16.2415L3.38524 15.8317L2.83094 16.2115L3.05613 15.5785L2.52362 15.1687L3.1953 15.1872L3.42048 14.5541L3.61042 15.1986L4.2821 15.2172L3.72781 15.597L3.91775 16.2415Z" fill="#ECEBEB"/>
<path d="M16.4848 10.4135L15.9218 10.7803L16.0967 11.4291L15.5739 11.007L15.0109 11.3738L15.2508 10.7461L14.728 10.324L15.399 10.3582L15.6389 9.73053L15.8138 10.3793L16.4848 10.4135Z" fill="#ECEBEB"/>
<path d="M12.9292 13.1954L12.3749 12.8156L11.8424 13.2254L12.0323 12.5808L11.478 12.201L12.1497 12.1825L12.3396 11.538L12.5648 12.171L13.2365 12.1525L12.704 12.5623L12.9292 13.1954Z" fill="#ECEBEB"/>
<path d="M11.8372 9.39082L12.0567 8.75574L11.5205 8.35075L12.1923 8.36324L12.4118 7.72816L12.6076 8.37096L13.2794 8.38345L12.7285 8.76823L12.9242 9.41103L12.3881 9.00604L11.8372 9.39082Z" fill="#ECEBEB"/>
<path d="M16.4403 7.06883L15.918 6.64609L15.3546 7.01219L15.5952 6.38482L15.0729 5.96208L15.7439 5.99709L15.9846 5.36973L16.1587 6.01873L16.8297 6.05373L16.2662 6.41983L16.4403 7.06883Z" fill="#ECEBEB"/>
</g>
<defs>
<clipPath id="clip0_6479_4470">
<rect width="20" height="20" rx="10" fill="white"/>
</clipPath>
</defs>
</svg>
